<svg width="65" height="64" viewBox="0 0 65 64" fill="none" xmlns="http://www.w3.org/2000/svg">
<g id="Frame" clip-path="url(#clip0_17589_506)">
<g id="Group">
<path id="Vector" d="M32.3333 64C50.0064 64 64.3333 49.6731 64.3333 32C64.3333 14.3269 50.0064 0 32.3333 0C14.6601 0 0.333252 14.3269 0.333252 32C0.333252 49.6731 14.6601 64 32.3333 64Z" fill="#33C1F1" fill-opacity="0.1"/>
<path id="Vector_2" d="M44.8906 38.4813C51.0272 32.3446 59.552 26.9103 63.7444 20.8343C64.753 19.3724 64.0464 17.3468 62.334 16.8756C60.1136 16.2646 56.4724 15.6457 50.8316 15.6457C39.6924 15.6457 5.34612 17.7917 0.333496 5.95068C0.333496 5.95068 3.304 18.8018 25.0256 19.9157C46.7472 21.0296 45.5371 19.5511 52.2274 20.8439C58.5129 22.0587 55.9371 25.9494 53.2451 28.6414C50.553 31.3337 46.1901 34.9538 44.8906 38.4813Z" fill="#33C1F1"/>
<path id="Vector_3" d="M37.8357 51.2916C40.2962 51.2916 42.2909 49.297 42.2909 46.8365C42.2909 44.376 40.2962 42.3813 37.8357 42.3813C35.3752 42.3813 33.3806 44.376 33.3806 46.8365C33.3806 49.297 35.3752 51.2916 37.8357 51.2916Z" fill="#33C1F1"/>
<path id="Vector_4" d="M16.857 51.2916C19.3175 51.2916 21.3121 49.297 21.3121 46.8365C21.3121 44.376 19.3175 42.3813 16.857 42.3813C14.3965 42.3813 12.4019 44.376 12.4019 46.8365C12.4019 49.297 14.3965 51.2916 16.857 51.2916Z" fill="#33C1F1"/>
</g>
</g>
<defs>
<clipPath id="clip0_17589_506">
<rect width="64" height="64" fill="white" transform="translate(0.333252)"/>
</clipPath>
</defs>
</svg>
