<svg width="65" height="64" viewBox="0 0 65 64" fill="none" xmlns="http://www.w3.org/2000/svg">
<g id="Layer_1">
<g id="Group">
<g id="Group_2">
<path id="Vector" d="M52.4255 12.6591C52.2045 12.6381 47.4855 12.2881 47.4855 12.2881C47.4855 12.2881 44.2055 9.01709 43.8465 8.65709C43.4865 8.29509 42.7835 8.40309 42.5095 8.48609C42.4705 8.49709 41.7945 8.70809 40.6755 9.05309C39.5795 5.88609 37.6485 2.97609 34.2495 2.97609C34.1555 2.97609 34.0585 2.98009 33.9605 2.98609C32.9945 1.70309 31.7965 1.14209 30.7615 1.14209C22.8425 1.14209 19.0585 11.0931 17.8725 16.1501C14.7945 17.1061 12.6065 17.7881 12.3305 17.8781C10.6095 18.4201 10.5565 18.4741 10.3335 20.1001C10.1615 21.3311 5.6665 56.2641 5.6665 56.2641L40.6885 62.8581L59.6665 58.7311C59.6665 58.7311 53.0055 13.4701 52.9635 13.1591C52.9215 12.8491 52.6495 12.6771 52.4255 12.6591ZM33.7005 10.8801C33.7005 10.9991 33.6985 11.1111 33.6985 11.2241C31.7705 11.8251 29.6785 12.4751 27.5775 13.1301C28.7565 8.56009 30.9645 6.35009 32.8975 5.51709C33.3825 6.74309 33.7005 8.50509 33.7005 10.8801ZM30.5425 3.27809C30.8885 3.27809 31.2305 3.39409 31.5605 3.62309C29.0215 4.82209 26.3025 7.84709 25.1525 13.8841C23.4735 14.4061 21.8335 14.9181 20.3145 15.3901C21.6605 10.7831 24.8545 3.27809 30.5425 3.27809ZM31.9075 30.1901C31.9075 30.1901 29.8575 29.0911 27.3465 29.0911C23.6605 29.0911 23.4745 31.4151 23.4745 31.9991C23.4745 35.1941 31.7615 36.4191 31.7615 43.9021C31.7615 49.7901 28.0475 53.5801 23.0355 53.5801C17.0235 53.5801 13.9475 49.8191 13.9475 49.8191L15.5565 44.4741C15.5565 44.4741 18.7165 47.2031 21.3865 47.2031C23.1265 47.2031 23.8355 45.8231 23.8355 44.8161C23.8355 40.6481 17.0365 40.4621 17.0365 33.6131C17.0365 27.8521 21.1525 22.2721 29.4645 22.2721C32.6635 22.2721 34.2475 23.1951 34.2475 23.1951L31.9075 30.1901ZM35.7765 10.5781C35.7765 10.3671 35.7785 10.1611 35.7785 9.93409C35.7785 7.96809 35.5055 6.38309 35.0695 5.12709C36.8215 5.34609 37.9885 7.35009 38.7395 9.65509C37.8605 9.93109 36.8605 10.2411 35.7765 10.5781Z" fill="#95C675"/>
</g>
<g id="Group_3">
<path id="Vector_2" d="M52.4255 12.6591C52.2045 12.6381 47.4855 12.2881 47.4855 12.2881C47.4855 12.2881 44.2055 9.01709 43.8465 8.65709C43.4865 8.29509 42.7835 8.40309 42.5095 8.48609C42.4705 8.49709 41.7945 8.70809 40.6755 9.05309C39.5795 5.88609 37.6485 2.97609 34.2495 2.97609C34.1555 2.97609 34.0585 2.98009 33.9605 2.98609C32.9945 1.70309 31.7965 1.14209 30.7615 1.14209C22.8425 1.14209 20.8885 11.0931 19.7025 16.1501C16.6245 17.1061 14.2625 22.3691 13.9835 22.4571C12.2645 22.9991 12.2115 23.0531 11.9875 24.6801C11.8145 25.9101 5.6665 56.2641 5.6665 56.2641L40.6885 62.8581L59.6665 58.7311C59.6665 58.7311 53.0055 13.4701 52.9635 13.1591C52.9215 12.8491 52.6495 12.6771 52.4255 12.6591ZM33.7005 10.8801C33.7005 10.9991 33.6985 11.1111 33.6985 11.2241C31.7705 11.8251 29.6785 12.4751 27.5775 13.1301C28.7565 8.56009 30.9645 6.35009 32.8975 5.51709C33.3825 6.74309 33.7005 8.50509 33.7005 10.8801ZM30.5425 3.27809C30.8885 3.27809 31.2305 3.39409 31.5605 3.62309C29.0215 4.82209 26.3025 7.84709 25.1525 13.8841C23.4735 14.4061 21.8335 14.9181 20.3145 15.3901C21.6605 10.7831 24.8545 3.27809 30.5425 3.27809ZM31.9075 30.1901C31.9075 30.1901 29.8575 29.0911 27.3465 29.0911C23.6605 29.0911 23.4745 31.4151 23.4745 31.9991C23.4745 35.1941 31.7615 36.4191 31.7615 43.9021C31.7615 49.7901 28.0475 53.5801 23.0355 53.5801C17.0235 53.5801 13.9475 49.8191 13.9475 49.8191L15.5565 44.4741C15.5565 44.4741 18.7165 47.2031 21.3865 47.2031C23.1265 47.2031 23.8355 45.8231 23.8355 44.8161C23.8355 40.6481 17.0365 40.4621 17.0365 33.6131C17.0365 27.8521 21.1525 22.2721 29.4645 22.2721C32.6635 22.2721 34.2475 23.1951 34.2475 23.1951L31.9075 30.1901ZM35.7765 10.5781C35.7765 10.3671 35.7785 10.1611 35.7785 9.93409C35.7785 7.96809 35.5055 6.38309 35.0695 5.12709C36.8215 5.34609 37.9885 7.35009 38.7395 9.65509C37.8605 9.93109 36.8605 10.2411 35.7765 10.5781Z" fill="#79B259"/>
</g>
<path id="Vector_3" d="M40.6885 62.8572L59.6665 58.7312C59.6665 58.7312 53.0055 13.4703 52.9635 13.1593C52.9215 12.8483 52.6505 12.6773 52.4255 12.6593C52.2045 12.6383 47.4855 12.2882 47.4855 12.2882C47.4855 12.2882 44.2055 9.01725 43.8465 8.65725C43.6545 8.46325 43.3675 8.40825 43.0965 8.40625C42.3765 9.62625 42.5255 11.9432 42.5255 11.9432L40.2935 62.7822L40.6885 62.8572Z" fill="#55932C"/>
<path id="Vector_4" d="M34.2495 2.97707C34.1555 2.97707 34.0585 2.98107 33.9605 2.98707C32.9945 1.70407 31.7965 1.14307 30.7615 1.14307C22.8745 1.14307 19.0875 11.0161 17.8865 16.0901L20.3335 15.3311C21.6875 10.7221 24.8785 3.27807 30.5425 3.27807C30.8885 3.27807 31.2305 3.39407 31.5605 3.62307C29.0285 4.81807 26.3165 7.83207 25.1625 13.8361L27.5925 13.0861C28.7745 8.54507 30.9735 6.34707 32.8995 5.51707C33.3835 6.74407 33.7025 8.50507 33.7025 10.8801C33.7025 10.9881 33.7025 11.0911 33.7005 11.1941L35.7785 10.5511C35.7785 10.3511 35.7805 10.1511 35.7805 9.93407C35.7805 7.96807 35.5075 6.38307 35.0715 5.12707C36.8175 5.34507 37.9835 7.34007 38.7335 9.63507L40.6715 9.03407C39.5725 5.87607 37.6425 2.97707 34.2495 2.97707Z" fill="#4A7A2B"/>
<path id="Vector_5" d="M48.2775 12.3482C47.8035 12.3112 47.4845 12.2882 47.4845 12.2882C47.4845 12.2882 44.2045 9.01725 43.8455 8.65725C43.6535 8.46325 43.3665 8.40825 43.0955 8.40625C42.3755 9.62625 42.5245 11.9432 42.5245 11.9432L40.2925 62.7822L40.6885 62.8572L50.7865 60.6612L48.2775 12.3482Z" fill="#4C822A"/>
</g>
</g>
</svg>
